<svg  viewBox="0 0 1000 1000" enable-background="new 0 0 1000 1000" >
<g><g transform="translate(0.000000,492.000000) scale(0.100000,-0.100000)"><path d="M1018.7,4615.9c-141.6-28.7-243.1-111-296.7-235.4c-24.9-63.2-28.7-379-28.7-2788.8c0-2430.9,3.8-2727.5,30.6-2794.5c21.1-55.5,24.9-86.1,9.6-112.9c-11.5-21-158.9-627.8-327.3-1351.3C101.9-3970.6,100-3982.1,100-4204.1c0-124.4,9.6-260.3,21.1-302.4c28.7-99.5,156.9-227.8,256.5-256.5c109.1-30.6,9135.8-30.6,9244.9,0c99.5,28.7,227.8,157,256.5,256.5c11.5,42.1,21,178,21,302.4c0,222.1-1.9,233.5-306.3,1537c-168.4,723.5-315.8,1330.3-327.3,1351.3c-15.3,26.8-11.5,57.4,9.6,112.9c26.8,67,30.6,363.7,30.6,2794.5c0,2409.8-3.8,2725.6-28.7,2788.8c-38.3,90-95.7,149.3-191.4,201l-76.6,42.1l-3962.1,1.9C2867.7,4627.4,1055.1,4623.6,1018.7,4615.9z M8923.8,1589.8v-2641.4H5000H1076.2v2641.4v2641.4H5000h3923.8V1589.8z M1717.4-1495.7c-38.3-174.2-239.3-1286.2-239.3-1330.3c0-68.9,42.1-132.1,114.8-168.4c47.9-24.9,476.6-28.7,3407-28.7c3632.9,0,3418.5-5.7,3491.3,99.5c17.2,23,30.6,67,30.6,97.6c0,44-201,1156.1-239.3,1330.3l-9.6,42.1H8587c283.3,0,315.8-3.8,325.4-32.5c36.4-116.7,539.7-2304.5,532.1-2312.2c-5.7-5.7-756.1-9.6-1669.1-9.6H6115.9l-74.6,195.2c-90,235.4-166.5,323.5-315.8,367.5c-147.4,44-1303.5,44-1450.9,0c-149.3-44-225.9-132.1-315.8-367.5l-74.6-195.2H2224.6c-913,0-1663.3,3.8-1669.1,9.6c-7.7,7.7,495.8,2195.4,532.1,2312.2c9.6,28.7,42.1,32.5,325.4,32.5H1727L1717.4-1495.7z M2944.3-1581.8c-7.7-72.7-19.1-158.9-24.9-191.4l-9.6-63.2h-430.7h-430.7l9.6,44c5.7,23,21.1,97.6,32.5,166.5c13.4,68.9,24.9,135.9,30.6,149.3c3.8,17.2,105.3,23,421.1,23h413.4L2944.3-1581.8z M4188.4-1495.7c-5.7-24.9-11.5-111-11.5-191.4v-149.3h-432.6h-434.5l13.4,130.1c7.7,70.8,17.2,157,23,191.4l11.5,61.3h421.1h421.1L4188.4-1495.7z M5421.1-1601c0-82.3,5.7-168.4,11.5-191.4l11.5-44H5000h-444.1l11.5,44c5.7,23,11.5,109.1,11.5,191.4v147.4H5000h421.1V-1601z M6653.8-1514.8c5.7-34.4,15.3-120.6,22.9-191.4l13.4-130.1h-434.5H5823v149.3c0,80.4-5.7,166.5-11.5,191.4l-11.5,42.1h421.1h421.1L6653.8-1514.8z M7911.3-1635.4c19.1-93.8,34.5-178,34.5-185.7c1.9-9.6-191.4-15.3-426.9-15.3h-428.7l-9.6,63.2c-5.7,32.5-17.2,118.7-24.9,191.4l-11.5,128.3l417.3-3.8l417.3-5.7L7911.3-1635.4z M2867.7-2244.1c1.9-1.9-7.7-86.1-19.1-185.7l-21.1-181.8l-463.2-5.7c-367.5-3.8-463.2,0-455.5,19.1c3.8,13.4,21.1,103.4,38.3,197.1l30.6,172.3l444.1-5.7C2664.8-2238.3,2865.8-2242.2,2867.7-2244.1z M8051-2395.3c17.2-97.6,36.4-189.5,40.2-202.9c7.7-19.1-88-23-455.5-19.1l-463.2,5.7l-13.4,114.8c-7.6,63.2-17.2,147.4-23,185.7l-7.6,72.7l423,5.7c233.5,1.9,434.5,5.8,446,9.6C8012.7-2221.1,8031.9-2288.1,8051-2395.3z M4157.8-2357c0-67-5.7-153.1-11.5-191.4l-13.4-72.7h-457.5h-459.4l9.6,63.2c5.7,32.5,17.2,118.7,24.9,191.4l11.5,128.3h447.9h447.9V-2357z M5447.9-2269c5.7-17.2,11.5-103.4,11.5-191.4v-160.8H5000h-459.4v160.8c0,88,5.7,174.2,11.5,191.4c9.6,26.8,67,30.6,447.9,30.6C5380.9-2238.3,5438.3-2242.2,5447.9-2269z M6749.5-2366.6c7.6-72.7,19.1-158.9,24.9-191.4l9.6-63.2h-459.4h-457.5l-13.4,72.7c-5.7,38.3-11.5,124.4-11.5,191.4v118.7h447.9H6738L6749.5-2366.6z M5648.9-3687.3c15.3-40.2,30.6-84.2,34.4-95.7c7.6-19.1-135.9-24.9-683.3-24.9c-547.4,0-691,5.7-683.3,24.9c3.8,11.5,19.1,55.5,34.5,95.7l24.9,70.8h624h624L5648.9-3687.3z M9513.4-4273c3.8-40.2-3.8-86.1-17.2-101.4c-19.1-23-639.3-26.8-4494.2-26.8c-3453,0-4478.9,5.7-4496.1,23c-24.9,24.9-32.5,153.1-9.6,174.2c5.7,7.7,2036.6,11.5,4511.4,7.7l4500-3.8L9513.4-4273z"/><path d="M1619.8,3827.3c-32.5-9.6-74.6-34.4-95.7-57.4c-34.5-38.3-36.4-101.4-42.1-2172.5l-3.8-2130.3l55.5-63.2l55.5-63.2H5000h3410.9l55.5,63.2l55.5,61.3v2111.2c0,1648-5.7,2118.9-24.9,2157.2c-13.4,26.8-53.6,63.2-90,80.4c-63.2,32.5-262.2,34.5-3397.5,32.5C3112.7,3846.5,1654.2,3836.9,1619.8,3827.3z M8139.1,1589.8V-266.9H5000H1860.9v1856.6v1856.6H5000h3139.1V1589.8z"/></g></g>
</svg>